<svg xmlns="http://www.w3.org/2000/svg" viewBox="0 0 1200 1200" preserveAspectRatio="xMidYMid" width="1200" height="1200" style="shape-rendering: auto; display: block; background: rgb(0, 0, 0);"><g data-idx="1"><g transform="matrix(1,0,0,1,600.7346801757812,599.5892944335938)" data-idx="2">


<g transform="matrix(-0.8728675293473291,0.48795724834363263,-0.48795724834363263,-0.8728675293473291,0,0)" data-idx="4">

<ellipse fill="#ffffdd" ry="0.002104158978909254" rx="0.02539731003344059" cy="0" cx="0" data-idx="5" opacity="0">
  
  
  


</ellipse></g></g><g transform="matrix(1,0,0,1,576.7918701171875,571.6957397460938)" data-idx="9">


<g transform="matrix(0.6340570978991944,0.773286232001871,-0.773286232001871,0.6340570978991944,0,0)" data-idx="11">

<ellipse fill="#ffffff" ry="0.0915064886212349" rx="0.6192940473556519" cy="0" cx="0" data-idx="12" opacity="0.227684">
  
  
  


</ellipse></g></g><g transform="matrix(1,0,0,1,610.951416015625,527.1506958007812)" data-idx="16">


<g transform="matrix(-0.14865905537796414,0.9888885100223035,-0.9888885100223035,-0.14865905537796414,0,0)" data-idx="18">

<ellipse fill="#ffffee" ry="0.18416962027549744" rx="1.1910449266433716" cy="0" cx="0" data-idx="19" opacity="0.610335">
  
  
  


</ellipse></g></g><g transform="matrix(1,0,0,1,482.25921630859375,540.6558837890625)" data-idx="23">


<g transform="matrix(0.8929854911315733,0.45008545036304237,-0.45008545036304237,0.8929854911315733,0,0)" data-idx="25">

<ellipse fill="#ffffdd" ry="0.3296268880367279" rx="2.1042068004608154" cy="0" cx="0" data-idx="26" opacity="0.859984">
  
  
  


</ellipse></g></g><g transform="matrix(1,0,0,1,614.2743530273438,553.0343627929688)" data-idx="30">


<g transform="matrix(-0.29079675397693955,0.9567848493138231,-0.9567848493138231,-0.29079675397693955,0,0)" data-idx="32">

<ellipse fill="#ffeedd" ry="0.12271738052368164" rx="0.8122069835662842" cy="0" cx="0" data-idx="33" opacity="0.375998">
  
  
  


</ellipse></g></g><g transform="matrix(1,0,0,1,591.0621337890625,577.533935546875)" data-idx="37">


<g transform="matrix(0.3696576266145334,0.9291680359793433,-0.9291680359793433,0.3696576266145334,0,0)" data-idx="39">

<ellipse fill="#ffffdd" ry="0.060446761548519135" rx="0.4250842034816742" cy="0" cx="0" data-idx="40" opacity="0.0867753">
  
  
  


</ellipse></g></g><g transform="matrix(1,0,0,1,590.5648803710938,599.582275390625)" data-idx="44">


<g transform="matrix(0.9990214351925946,0.044228633550321104,-0.044228633550321104,0.9990214351925946,0,0)" data-idx="46">

<ellipse fill="#ffffff" ry="0.023610860109329224" rx="0.18584862351417542" cy="0" cx="0" data-idx="47" opacity="0">
  
  
  


</ellipse></g></g><g transform="matrix(1,0,0,1,601.021484375,600.4319458007812)" data-idx="51">


<g transform="matrix(0.9210354649812877,0.38947871860565514,-0.38947871860565514,0.9210354649812877,0,0)" data-idx="53">

<ellipse fill="#ffffff" ry="0.0027725975960493088" rx="0.031588319689035416" cy="0" cx="0" data-idx="54" opacity="0">
  
  
  


</ellipse></g></g><g transform="matrix(1,0,0,1,303.951171875,473.3169250488281)" data-idx="58">


<g transform="matrix(0.9193641384394087,0.39340765238053504,-0.39340765238053504,0.9193641384394087,0,0)" data-idx="60">

<ellipse fill="#ffffdd" ry="0.8050369620323181" rx="5.460216522216797" cy="0" cx="0" data-idx="61" opacity="0.988411">
  
  
  


</ellipse></g></g><g transform="matrix(1,0,0,1,613.016845703125,631.7890625)" data-idx="65">


<g transform="matrix(0.3789374809009146,0.9254222741907983,-0.9254222741907983,0.3789374809009146,0,0)" data-idx="67">

<ellipse fill="#ffeedd" ry="0.0858771950006485" rx="0.5843279361724854" cy="0" cx="0" data-idx="68" opacity="0.200696">
  
  
  


</ellipse></g></g><g transform="matrix(1,0,0,1,602.4242553710938,602.5917358398438)" data-idx="72">


<g transform="matrix(0.683118515906347,0.7303075333213467,-0.7303075333213467,0.683118515906347,0,0)" data-idx="74">

<ellipse fill="#ffffdd" ry="0.008872070349752903" rx="0.08120548725128174" cy="0" cx="0" data-idx="75" opacity="0">
  
  
  


</ellipse></g></g><g transform="matrix(1,0,0,1,574.797119140625,675.5601806640625)" data-idx="79">


<g transform="matrix(-0.31641034852608774,0.9486224176908322,-0.9486224176908322,-0.31641034852608774,0,0)" data-idx="81">

<ellipse fill="#ffeedd" ry="0.19913135468959808" rx="1.2835890054702759" cy="0" cx="0" data-idx="82" opacity="0.652569">
  
  
  


</ellipse></g></g><g transform="matrix(1,0,0,1,970.840576171875,368.5736999511719)" data-idx="86">


<g transform="matrix(-0.8483570179229543,0.5294245651090175,-0.5294245651090175,-0.8483570179229543,0,0)" data-idx="88">

<ellipse fill="#ffffee" ry="1.0928199291229248" rx="7.752531051635742" cy="0" cx="0" data-idx="89" opacity="0.996967">
  
  
  


</ellipse></g></g><g transform="matrix(1,0,0,1,596.8292846679688,587.604248046875)" data-idx="93">


<g transform="matrix(0.24780942940088907,0.968808797802748,-0.968808797802748,0.24780942940088907,0,0)" data-idx="95">

<ellipse fill="#ffffdd" ry="0.031987160444259644" rx="0.24189750850200653" cy="0" cx="0" data-idx="96" opacity="0.00366971">
  
  
  


</ellipse></g></g><g transform="matrix(1,0,0,1,592.6350708007812,601.5994873046875)" data-idx="100">


<g transform="matrix(-0.9772195212082471,0.2122310235793165,-0.2122310235793165,-0.9772195212082471,0,0)" data-idx="102">

<ellipse fill="#ffffdd" ry="0.01884152740240097" rx="0.1531132310628891" cy="0" cx="0" data-idx="103" opacity="0">
  
  
  


</ellipse></g></g><g transform="matrix(1,0,0,1,601.8580322265625,725.7437744140625)" data-idx="107">


<g transform="matrix(0.014774547001052815,0.9998908504236418,-0.9998908504236418,0.014774547001052815,0,0)" data-idx="109">

<ellipse fill="#ffffee" ry="0.31439369916915894" rx="2.0068442821502686" cy="0" cx="0" data-idx="110" opacity="0.845646">
  
  
  


</ellipse></g></g><g transform="matrix(1,0,0,1,600.0728759765625,600.111572265625)" data-idx="114">


<g transform="matrix(0.5467144754573143,0.8373191042400941,-0.8373191042400941,0.5467144754573143,0,0)" data-idx="116">

<ellipse fill="#ffffff" ry="0.00033312407322227955" rx="0.006212376989424229" cy="0" cx="0" data-idx="117" opacity="0">
  
  
  


</ellipse></g></g><g transform="matrix(1,0,0,1,593.506103515625,609.63427734375)" data-idx="121">


<g transform="matrix(-0.5589255024746962,0.8292178740737614,-0.8292178740737614,-0.5589255024746962,0,0)" data-idx="123">

<ellipse fill="#ffffff" ry="0.02904636226594448" rx="0.22238940000534058" cy="0" cx="0" data-idx="124" opacity="0.000895439">
  
  
  


</ellipse></g></g><g transform="matrix(1,0,0,1,601.8283081054688,615.2159423828125)" data-idx="128">


<g transform="matrix(0.11930016918831243,0.9928582323935478,-0.9928582323935478,0.11930016918831243,0,0)" data-idx="130">

<ellipse fill="#ffffdd" ry="0.038313474506139755" rx="0.2833792567253113" cy="0" cx="0" data-idx="131" opacity="0.0146813">
  
  
  


</ellipse></g></g><g transform="matrix(1,0,0,1,603.055419921875,606.3310546875)" data-idx="135">


<g transform="matrix(0.43463570482796265,0.9006063535689165,-0.9006063535689165,0.43463570482796265,0,0)" data-idx="137">

<ellipse fill="#ffffff" ry="0.017574451863765717" rx="0.14428013563156128" cy="0" cx="0" data-idx="138" opacity="0">
  
  
  


</ellipse></g></g><g transform="matrix(1,0,0,1,1299.984130859375,942.8950805664062)" data-idx="142">


<g transform="matrix(0.8980395524040425,0.43991472164266904,-0.43991472164266904,0.8980395524040425,0,0)" data-idx="144">

<ellipse fill="#ffffff" ry="1.9486451148986816" rx="11.929523468017578" cy="0" cx="0" data-idx="145" opacity="0.999969">
  
  
  


</ellipse></g></g><g transform="matrix(1,0,0,1,617.283447265625,589.580810546875)" data-idx="149">


<g transform="matrix(-0.8564177601417192,0.5162834687590149,-0.5162834687590149,-0.8564177601417192,0,0)" data-idx="151">

<ellipse fill="#ffffff" ry="0.05045274645090103" rx="0.36161190271377563" cy="0" cx="0" data-idx="152" opacity="0.0493874">
  
  
  


</ellipse></g></g><g transform="matrix(1,0,0,1,594.8873291015625,599.5821533203125)" data-idx="156">


<g transform="matrix(0.9966769940421191,0.08145532239925046,-0.08145532239925046,0.9966769940421191,0,0)" data-idx="158">

<ellipse fill="#ffeedd" ry="0.01282430812716484" rx="0.11048354208469391" cy="0" cx="0" data-idx="159" opacity="0">
  
  
  


</ellipse></g></g><g transform="matrix(1,0,0,1,599.68896484375,601.7664184570312)" data-idx="163">


<g transform="matrix(-0.17341934225885502,0.9848480754565682,-0.9848480754565682,-0.17341934225885502,0,0)" data-idx="165">

<ellipse fill="#ffeedd" ry="0.004483985714614391" rx="0.04643717408180237" cy="0" cx="0" data-idx="166" opacity="0">
  
  
  


</ellipse></g></g><g transform="matrix(1,0,0,1,618.33447265625,1001.6617431640625)" data-idx="170">


<g transform="matrix(0.045599072491273,0.9989598213081123,-0.9989598213081123,0.045599072491273,0,0)" data-idx="172">

<ellipse fill="#ffffee" ry="1.005199909210205" rx="7.053214073181152" cy="0" cx="0" data-idx="173" opacity="0.995439">
  
  
  


</ellipse></g></g><g transform="matrix(1,0,0,1,564.431640625,570.1127319335938)" data-idx="177">


<g transform="matrix(0.7656003785880244,0.6433164542477315,-0.6433164542477315,0.7656003785880244,0,0)" data-idx="179">

<ellipse fill="#ffffee" ry="0.11614528298377991" rx="0.7716758251190186" cy="0" cx="0" data-idx="180" opacity="0.345628">
  
  
  


</ellipse></g></g><g transform="matrix(1,0,0,1,408.5531921386719,268.3695068359375)" data-idx="184">


<g transform="matrix(0.49996056063733124,0.8660481729137274,-0.8660481729137274,0.49996056063733124,0,0)" data-idx="186">

<ellipse fill="#ffffff" ry="0.9573096036911011" rx="6.668033599853516" cy="0" cx="0" data-idx="187" opacity="0.994304">
  
  
  


</ellipse></g></g><g transform="matrix(1,0,0,1,608.6301879882812,606.4846801757812)" data-idx="191">


<g transform="matrix(0.7994646842138254,0.6007130918291097,-0.6007130918291097,0.7994646842138254,0,0)" data-idx="193">

<ellipse fill="#ffffee" ry="0.02698735147714615" rx="0.20862822234630585" cy="0" cx="0" data-idx="194" opacity="5.361e-05">
  
  
  


</ellipse></g></g><g transform="matrix(1,0,0,1,980.01513671875,572.2953491210938)" data-idx="198">


<g transform="matrix(-0.9973530388335119,0.07271118159925148,-0.07271118159925148,-0.9973530388335119,0,0)" data-idx="200">

<ellipse fill="#ffffdd" ry="0.9525593519210815" rx="6.629856109619141" cy="0" cx="0" data-idx="201" opacity="0.994177">
  
  
  


</ellipse></g></g><g transform="matrix(1,0,0,1,594.9097290039062,600.3843994140625)" data-idx="205">


<g transform="matrix(-0.9971605955418981,0.07530436042173975,-0.07530436042173975,-0.9971605955418981,0,0)" data-idx="207">

<ellipse fill="#ffffee" ry="0.012761840596795082" rx="0.11003042757511139" cy="0" cx="0" data-idx="208" opacity="0">
  
  
  


</ellipse></g></g><g transform="matrix(1,0,0,1,600.0018920898438,600.0059204101562)" data-idx="212">


<g transform="matrix(0.30862007509998385,0.9511853916273527,-0.9511853916273527,0.30862007509998385,0,0)" data-idx="214">

<ellipse fill="#ffeedd" ry="0.000015528978110523894" rx="0.0006871619261801243" cy="0" cx="0" data-idx="215" opacity="0">
  
  
  


</ellipse></g></g><g transform="matrix(1,0,0,1,595.99072265625,601.4207763671875)" data-idx="219">


<g transform="matrix(-0.9425678605118598,0.33401471274495564,-0.33401471274495564,-0.9425678605118598,0,0)" data-idx="221">

<ellipse fill="#ffeedd" ry="0.010633991099894047" rx="0.09442503750324249" cy="0" cx="0" data-idx="222" opacity="0">
  
  
  


</ellipse></g></g><g transform="matrix(1,0,0,1,600.2543334960938,600.0020141601562)" data-idx="226">


<g transform="matrix(0.9999695114172041,0.007808728195938013,-0.007808728195938013,0.9999695114172041,0,0)" data-idx="228">

<ellipse fill="#ffffdd" ry="0.0006358521059155464" rx="0.010088053531944752" cy="0" cx="0" data-idx="229" opacity="0">
  
  
  


</ellipse></g></g><g transform="matrix(1,0,0,1,589.23974609375,609.8666381835938)" data-idx="233">


<g transform="matrix(-0.73704897552612,0.6758393356973955,-0.6758393356973955,-0.73704897552612,0,0)" data-idx="235">

<ellipse fill="#ffeedd" ry="0.0364978052675724" rx="0.27153393626213074" cy="0" cx="0" data-idx="236" opacity="0.0109079">
  
  
  


</ellipse></g></g><g transform="matrix(1,0,0,1,602.224609375,604.4153442382812)" data-idx="240">


<g transform="matrix(0.4499541411062701,0.8930516619442118,-0.8930516619442118,0.4499541411062701,0,0)" data-idx="242">

<ellipse fill="#ffeedd" ry="0.012360310181975365" rx="0.10711155831813812" cy="0" cx="0" data-idx="243" opacity="0">
  
  
  


</ellipse></g></g><g transform="matrix(1,0,0,1,677.3822631835938,441.03985595703125)" data-idx="247">


<g transform="matrix(-0.4376958989027637,0.8991230728235716,-0.8991230728235716,-0.4376958989027637,0,0)" data-idx="249">

<ellipse fill="#ffffee" ry="0.441986620426178" rx="2.8387629985809326" cy="0" cx="0" data-idx="250" opacity="0.92811">
  
  
  


</ellipse></g></g><g transform="matrix(1,0,0,1,1363.4102783203125,762.9054565429688)" data-idx="254">


<g transform="matrix(0.9779811709218338,0.20869314632339728,-0.20869314632339728,0.9779811709218338,0,0)" data-idx="256">

<ellipse fill="#ffffdd" ry="1.9514954090118408" rx="11.934885025024414" cy="0" cx="0" data-idx="257" opacity="0.99997">
  
  
  


</ellipse></g></g><g transform="matrix(1,0,0,1,471.7843017578125,403.9085693359375)" data-idx="261">


<g transform="matrix(0.5472555060258626,0.8369655973362209,-0.8369655973362209,0.5472555060258626,0,0)" data-idx="263">

<ellipse fill="#ffffdd" ry="0.5857213139533997" rx="3.8280248641967773" cy="0" cx="0" data-idx="264" opacity="0.96643">
  
  
  


</ellipse></g></g><g transform="matrix(1,0,0,1,597.7735595703125,603.8248291015625)" data-idx="268">


<g transform="matrix(-0.5030773269779232,0.8642414032437625,-0.8642414032437625,-0.5030773269779232,0,0)" data-idx="270">

<ellipse fill="#ffeedd" ry="0.0110640749335289" rx="0.09760795533657074" cy="0" cx="0" data-idx="271" opacity="0">
  
  
  


</ellipse></g></g><g transform="matrix(1,0,0,1,600,600)" data-idx="275">


<g transform="matrix(-0.4235205134270436,0.9058865131496845,-0.9058865131496845,-0.4235205134270436,0,0)" data-idx="277">

<ellipse fill="#ffffdd" ry="2.0280570112163332e-8" rx="0.0000075130778895982075" cy="0" cx="0" data-idx="278" opacity="0">
  
  
  


</ellipse></g></g><g transform="matrix(1,0,0,1,885.7398681640625,985.22265625)" data-idx="282">


<g transform="matrix(0.5957521382584081,0.8031683445956611,-0.8031683445956611,0.5957521382584081,0,0)" data-idx="284">

<ellipse fill="#ffeedd" ry="1.1990718841552734" rx="8.568821907043457" cy="0" cx="0" data-idx="285" opacity="0.99816">
  
  
  


</ellipse></g></g><g transform="matrix(1,0,0,1,603.9295043945312,608.61328125)" data-idx="289">


<g transform="matrix(0.41505853277402244,0.9097947100151087,-0.9097947100151087,0.41505853277402244,0,0)" data-idx="291">

<ellipse fill="#ffeedd" ry="0.023668281733989716" rx="0.18623846769332886" cy="0" cx="0" data-idx="292" opacity="0">
  
  
  


</ellipse></g></g><g transform="matrix(1,0,0,1,592.6788330078125,596.29443359375)" data-idx="296">


<g transform="matrix(0.8922225907393683,0.4515958907854784,-0.4515958907854784,0.8922225907393683,0,0)" data-idx="298">

<ellipse fill="#ffffee" ry="0.020513860508799553" rx="0.16467733681201935" cy="0" cx="0" data-idx="299" opacity="0">
  
  
  


</ellipse></g></g><g transform="matrix(1,0,0,1,599.5215454101562,598.9241943359375)" data-idx="303">


<g transform="matrix(0.4063624260690453,0.9137119779664047,-0.9137119779664047,0.4063624260690453,0,0)" data-idx="305">

<ellipse fill="#ffeedd" ry="0.0029435770120471716" rx="0.03312830254435539" cy="0" cx="0" data-idx="306" opacity="0">
  
  
  


</ellipse></g></g><g transform="matrix(1,0,0,1,503.8270263671875,1096.8743896484375)" data-idx="310">


<g transform="matrix(-0.19002897931390744,0.9817784816448741,-0.9817784816448741,-0.19002897931390744,0,0)" data-idx="312">

<ellipse fill="#ffffee" ry="1.2652405500411987" rx="9.04611873626709" cy="0" cx="0" data-idx="313" opacity="0.998658">
  
  
  


</ellipse></g></g><g transform="matrix(1,0,0,1,602.6036376953125,628.38818359375)" data-idx="317">


<g transform="matrix(0.09133308345683407,0.9958203994025564,-0.9958203994025564,0.09133308345683407,0,0)" data-idx="319">

<ellipse fill="#ffffdd" ry="0.07126829028129578" rx="0.4931621253490448" cy="0" cx="0" data-idx="320" opacity="0.132922">
  
  
  


</ellipse></g></g><g transform="matrix(1,0,0,1,544.753173828125,507.49163818359375)" data-idx="324">


<g transform="matrix(0.5127327271660835,0.8585482808164201,-0.8585482808164201,0.5127327271660835,0,0)" data-idx="326">

<ellipse fill="#ffffee" ry="0.26937437057495117" rx="1.7217638492584229" cy="0" cx="0" data-idx="327" opacity="0.7915">
  
  
  


</ellipse></g></g><g transform="matrix(1,0,0,1,553.5997314453125,642.35888671875)" data-idx="331">


<g transform="matrix(-0.7385376534893585,0.6742122324449715,-0.6742122324449715,-0.7385376534893585,0,0)" data-idx="333">

<ellipse fill="#ffffff" ry="0.15706807374954224" rx="1.0238429307937622" cy="0" cx="0" data-idx="334" opacity="0.519209">
  
  
  


</ellipse></g></g><g transform="matrix(1,0,0,1,598.4871826171875,604.6900634765625)" data-idx="338">


<g transform="matrix(-0.3069867462680089,0.9517137897581295,-0.9517137897581295,-0.3069867462680089,0,0)" data-idx="340">

<ellipse fill="#ffffdd" ry="0.012320076115429401" rx="0.10681845247745514" cy="0" cx="0" data-idx="341" opacity="0">
  
  
  


</ellipse></g></g><g transform="matrix(1,0,0,1,519.4522094726562,388.06048583984375)" data-idx="345">


<g transform="matrix(0.35525937047131306,0.9347677677863772,-0.9347677677863772,0.35525937047131306,0,0)" data-idx="347">

<ellipse fill="#ffffdd" ry="0.5668240189552307" rx="3.694446325302124" cy="0" cx="0" data-idx="348" opacity="0.963044">
  
  
  


</ellipse></g></g><g transform="matrix(1,0,0,1,593.33935546875,615.3063354492188)" data-idx="352">


<g transform="matrix(-0.3990153825988042,0.9169442319190028,-0.9169442319190028,-0.3990153825988042,0,0)" data-idx="354">

<ellipse fill="#ffeedd" ry="0.04173193871974945" rx="0.30556735396385193" cy="0" cx="0" data-idx="355" opacity="0.0229212">
  
  
  


</ellipse></g></g><g transform="matrix(1,0,0,1,606.4191284179688,612.8582763671875)" data-idx="359">


<g transform="matrix(0.4466568480144455,0.8947053482134778,-0.8947053482134778,0.4466568480144455,0,0)" data-idx="361">

<ellipse fill="#ffffdd" ry="0.03592877835035324" rx="0.2678122818470001" cy="0" cx="0" data-idx="362" opacity="0.00981992">
  
  
  


</ellipse></g></g><g transform="matrix(1,0,0,1,599.9994506835938,600.0001831054688)" data-idx="366">


<g transform="matrix(-0.928820802581167,0.3705292386472043,-0.3705292386472043,-0.928820802581167,0,0)" data-idx="368">

<ellipse fill="#ffffee" ry="0.0000014034505966264987" rx="0.00013110783766023815" cy="0" cx="0" data-idx="369" opacity="0">
  
  
  


</ellipse></g></g><g transform="matrix(1,0,0,1,601.0956420898438,612.8448486328125)" data-idx="373">


<g transform="matrix(0.0849901379508161,0.9963817925128405,-0.9963817925128405,0.0849901379508161,0,0)" data-idx="375">

<ellipse fill="#ffeedd" ry="0.032228805124759674" rx="0.24349351227283478" cy="0" cx="0" data-idx="376" opacity="0.00397148">
  
  
  


</ellipse></g></g><g transform="matrix(1,0,0,1,599.986083984375,600.0029296875)" data-idx="380">


<g transform="matrix(-0.9785470468228155,0.2060234868997867,-0.2060234868997867,-0.9785470468228155,0,0)" data-idx="382">

<ellipse fill="#ffffff" ry="0.000035516259231371805" rx="0.0012290809536352754" cy="0" cx="0" data-idx="383" opacity="0">
  
  
  


</ellipse></g></g><g transform="matrix(1,0,0,1,843.2471923828125,861.8927612304688)" data-idx="387">


<g transform="matrix(0.6805428505969852,0.7327082833579333,-0.7327082833579333,0.6805428505969852,0,0)" data-idx="389">

<ellipse fill="#ffffdd" ry="0.8935778141021729" rx="6.157611846923828" cy="0" cx="0" data-idx="390" opacity="0.992341">
  
  
  


</ellipse></g></g><g transform="matrix(1,0,0,1,599.0316772460938,591.7407836914062)" data-idx="394">


<g transform="matrix(0.11644427144321429,0.9931972269635367,-0.9931972269635367,0.11644427144321429,0,0)" data-idx="396">

<ellipse fill="#ffffee" ry="0.02078952267765999" rx="0.16657404601573944" cy="0" cx="0" data-idx="397" opacity="0">
  
  
  


</ellipse></g></g><g transform="matrix(1,0,0,1,575.717529296875,774.8193359375)" data-idx="401">


<g transform="matrix(-0.137579499022171,0.9904907275935543,-0.9904907275935543,-0.137579499022171,0,0)" data-idx="403">

<ellipse fill="#ffffff" ry="0.44124436378479004" rx="2.8338069915771484" cy="0" cx="0" data-idx="404" opacity="0.92781">
  
  
  


</ellipse></g></g><g transform="matrix(1,0,0,1,579.9963989257812,591.9318237304688)" data-idx="408">


<g transform="matrix(0.9274056163579936,0.37405724528158785,-0.37405724528158785,0.9274056163579936,0,0)" data-idx="410">

<ellipse fill="#ffeedd" ry="0.0539235919713974" rx="0.3837338984012604" cy="0" cx="0" data-idx="411" opacity="0.0616566">
  
  
  


</ellipse></g></g><g transform="matrix(1,0,0,1,591.7485961914062,606.553466796875)" data-idx="415">


<g transform="matrix(-0.7830689921344769,0.6219348467142636,-0.6219348467142636,-0.7830689921344769,0,0)" data-idx="417">

<ellipse fill="#ffffdd" ry="0.026343178004026413" rx="0.2043038159608841" cy="0" cx="0" data-idx="418" opacity="1.32062e-09">
  
  
  


</ellipse></g></g><g transform="matrix(1,0,0,1,599.5153198242188,599.9263916015625)" data-idx="422">


<g transform="matrix(0.9886633355654433,0.1501492887382813,-0.1501492887382813,0.9886633355654433,0,0)" data-idx="424">

<ellipse fill="#ffeedd" ry="0.0012255897745490074" rx="0.01666293479502201" cy="0" cx="0" data-idx="425" opacity="0">
  
  
  


</ellipse></g></g><g transform="matrix(1,0,0,1,373.1138000488281,736.9906616210938)" data-idx="429">


<g transform="matrix(-0.8560597935894407,0.5168768033096516,-0.5168768033096516,-0.8560597935894407,0,0)" data-idx="431">

<ellipse fill="#ffeedd" ry="0.6625886559486389" rx="4.382959365844727" cy="0" cx="0" data-idx="432" opacity="0.977088">
  
  
  


</ellipse></g></g><g transform="matrix(1,0,0,1,688.1846923828125,478.1258850097656)" data-idx="436">


<g transform="matrix(-0.5862088451948065,0.8101599779150852,-0.8101599779150852,-0.5862088451948065,0,0)" data-idx="438">

<ellipse fill="#ffffdd" ry="0.3760804533958435" rx="2.404230833053589" cy="0" cx="0" data-idx="439" opacity="0.89479">
  
  
  


</ellipse></g></g><g transform="matrix(1,0,0,1,598.7774658203125,584.3848876953125)" data-idx="443">


<g transform="matrix(0.0780547401789175,0.9969490746951931,-0.9969490746951931,0.0780547401789175,0,0)" data-idx="445">

<ellipse fill="#ffffff" ry="0.03915729373693466" rx="0.2888695001602173" cy="0" cx="0" data-idx="446" opacity="0.0165833">
  
  
  


</ellipse></g></g><g transform="matrix(1,0,0,1,599.8374633789062,600.026611328125)" data-idx="450">


<g transform="matrix(-0.9868758847897137,0.16148061190285307,-0.16148061190285307,-0.9868758847897137,0,0)" data-idx="452">

<ellipse fill="#ffeedd" ry="0.00041179562686011195" rx="0.007275868207216263" cy="0" cx="0" data-idx="453" opacity="0">
  
  
  


</ellipse></g></g><g transform="matrix(1,0,0,1,607.2944946289062,579.5491943359375)" data-idx="457">


<g transform="matrix(-0.3359537688849161,0.9418784768599505,-0.9418784768599505,-0.3359537688849161,0,0)" data-idx="459">

<ellipse fill="#ffffff" ry="0.05428200215101242" rx="0.3860131800174713" cy="0" cx="0" data-idx="460" opacity="0.0629706">
  
  
  


</ellipse></g></g><g transform="matrix(1,0,0,1,573.60205078125,559.7869873046875)" data-idx="464">


<g transform="matrix(0.5487755421571399,0.8359697388842118,-0.8359697388842118,0.5487755421571399,0,0)" data-idx="466">

<ellipse fill="#ffffee" ry="0.12025851756334305" rx="0.7970463633537292" cy="0" cx="0" data-idx="467" opacity="0.364722">
  
  
  


</ellipse></g></g><g transform="matrix(1,0,0,1,586.8947143554688,600.927490234375)" data-idx="471">


<g transform="matrix(-0.9975049740361758,0.07059622350443676,-0.07059622350443676,-0.9975049740361758,0,0)" data-idx="473">

<ellipse fill="#ffffee" ry="0.03284511715173721" rx="0.2475595623254776" cy="0" cx="0" data-idx="474" opacity="0.00478821">
  
  
  


</ellipse></g></g><g transform="matrix(1,0,0,1,422.6228332519531,626.5803833007812)" data-idx="478">


<g transform="matrix(-0.9889577645858194,0.1481976378537084,-0.1481976378537084,-0.9889577645858194,0,0)" data-idx="480">

<ellipse fill="#ffffee" ry="0.448394238948822" rx="2.881608247756958" cy="0" cx="0" data-idx="481" opacity="0.930634">
  
  
  


</ellipse></g></g><g transform="matrix(1,0,0,1,607.6398315429688,604.91259765625)" data-idx="485">


<g transform="matrix(0.8411135973235879,0.5408584994223288,-0.5408584994223288,0.8411135973235879,0,0)" data-idx="487">

<ellipse fill="#ffeedd" ry="0.022707460448145866" rx="0.17970281839370728" cy="0" cx="0" data-idx="488" opacity="0">
  
  
  


</ellipse></g></g><g transform="matrix(1,0,0,1,777.5140380859375,523.0868530273438)" data-idx="492">


<g transform="matrix(-0.9175737115086924,0.3975656976502915,-0.3975656976502915,-0.9175737115086924,0,0)" data-idx="494">

<ellipse fill="#ffeedd" ry="0.48365068435668945" rx="3.119361639022827" cy="0" cx="0" data-idx="495" opacity="0.94282">
  
  
  


</ellipse></g></g><g transform="matrix(1,0,0,1,537.2667236328125,547.8326416015625)" data-idx="499">


<g transform="matrix(0.76888606381645,0.6393858153484843,-0.6393858153484843,0.76888606381645,0,0)" data-idx="501">

<ellipse fill="#ffffdd" ry="0.20397448539733887" rx="1.3135931491851807" cy="0" cx="0" data-idx="502" opacity="0.665114">
  
  
  


</ellipse></g></g><g transform="matrix(1,0,0,1,383.3047180175781,615.557861328125)" data-idx="506">


<g transform="matrix(-0.9974325811661451,0.07161177297233581,-0.07161177297233581,-0.9974325811661451,0,0)" data-idx="508">

<ellipse fill="#ffeedd" ry="0.5431326627731323" rx="3.528533458709717" cy="0" cx="0" data-idx="509" opacity="0.958251">
  
  
  


</ellipse></g></g><g transform="matrix(1,0,0,1,794.1163940429688,164.93447875976562)" data-idx="513">


<g transform="matrix(-0.40745945743804873,0.9132232971975096,-0.9132232971975096,-0.40745945743804873,0,0)" data-idx="515">

<ellipse fill="#ffffdd" ry="1.1910163164138794" rx="8.508833885192871" cy="0" cx="0" data-idx="516" opacity="0.998088">
  
  
  


</ellipse></g></g><g transform="matrix(1,0,0,1,591.3157348632812,573.0322875976562)" data-idx="520">


<g transform="matrix(0.30652326428817356,0.9518631668733287,-0.9518631668733287,0.30652326428817356,0,0)" data-idx="522">

<ellipse fill="#ffffee" ry="0.07082878798246384" rx="0.4904077351093292" cy="0" cx="0" data-idx="523" opacity="0.130964">
  
  
  


</ellipse></g></g><g transform="matrix(1,0,0,1,590.1239013671875,615.3050537109375)" data-idx="527">


<g transform="matrix(-0.5421997510840283,0.8402496235788611,-0.8402496235788611,-0.5421997510840283,0,0)" data-idx="529">

<ellipse fill="#ffffdd" ry="0.04553715139627457" rx="0.33011141419410706" cy="0" cx="0" data-idx="530" opacity="0.033608">
  
  
  


</ellipse></g></g><g transform="matrix(1,0,0,1,669.4076538085938,759.5555419921875)" data-idx="534">


<g transform="matrix(0.39889853108523854,0.9169950719049906,-0.9169950719049906,0.39889853108523854,0,0)" data-idx="536">

<ellipse fill="#ffffee" ry="0.43499571084976196" rx="2.792142629623413" cy="0" cx="0" data-idx="537" opacity="0.925233">
  
  
  


</ellipse></g></g><g transform="matrix(1,0,0,1,597.5525512695312,597.6558227539062)" data-idx="541">


<g transform="matrix(0.7221797293259454,0.6917054564991548,-0.6917054564991548,0.7221797293259454,0,0)" data-idx="543">

<ellipse fill="#ffffee" ry="0.00847235880792141" rx="0.07816087454557419" cy="0" cx="0" data-idx="544" opacity="0">
  
  
  


</ellipse></g></g><g transform="matrix(1,0,0,1,567.1982421875,594.3487548828125)" data-idx="548">


<g transform="matrix(0.9854813954789524,0.16978344785301244,-0.16978344785301244,0.9854813954789524,0,0)" data-idx="550">

<ellipse fill="#ffffff" ry="0.08321259915828705" rx="0.5677492618560791" cy="0" cx="0" data-idx="551" opacity="0.188037">
  
  
  


</ellipse></g></g><g transform="matrix(1,0,0,1,585.9512329101562,636.3114013671875)" data-idx="555">


<g transform="matrix(-0.3608324600094808,0.9326306534762335,-0.9326306534762335,-0.3608324600094808,0,0)" data-idx="557">

<ellipse fill="#ffffff" ry="0.09733593463897705" rx="0.6554313898086548" cy="0" cx="0" data-idx="558" opacity="0.255811">
  
  
  


</ellipse></g></g><g transform="matrix(1,0,0,1,603.9488525390625,605.8876953125)" data-idx="562">


<g transform="matrix(0.5570124792996276,0.8305041227498404,-0.8305041227498404,0.5570124792996276,0,0)" data-idx="564">

<ellipse fill="#ffeedd" ry="0.017723264172673225" rx="0.14532096683979034" cy="0" cx="0" data-idx="565" opacity="0">
  
  
  


</ellipse></g></g><g transform="matrix(1,0,0,1,600.1936645507812,599.8839721679688)" data-idx="569">


<g transform="matrix(-0.8579033993720276,0.5138110132586876,-0.5138110132586876,-0.8579033993720276,0,0)" data-idx="571">

<ellipse fill="#ffffdd" ry="0.0005644286866299808" rx="0.009219419211149216" cy="0" cx="0" data-idx="572" opacity="0">
  
  
  


</ellipse></g></g><g transform="matrix(1,0,0,1,599.9982299804688,600.0035400390625)" data-idx="576">


<g transform="matrix(-0.4513010177920787,0.8923717786549695,-0.8923717786549695,-0.4513010177920787,0,0)" data-idx="578">

<ellipse fill="#ffeedd" ry="0.000009836119716055691" rx="0.0004999741795472801" cy="0" cx="0" data-idx="579" opacity="0">
  
  
  


</ellipse></g></g><g transform="matrix(1,0,0,1,597.7233276367188,597.1484375)" data-idx="583">


<g transform="matrix(0.6239300464828855,0.7814801962275592,-0.7814801962275592,0.6239300464828855,0,0)" data-idx="585">

<ellipse fill="#ffffee" ry="0.009122269228100777" rx="0.0831020325422287" cy="0" cx="0" data-idx="586" opacity="0">
  
  
  


</ellipse></g></g><g transform="matrix(1,0,0,1,597.9634399414062,598.0907592773438)" data-idx="590">


<g transform="matrix(0.7295473610963376,0.6839302946334298,-0.6839302946334298,0.7295473610963376,0,0)" data-idx="592">

<ellipse fill="#ffffdd" ry="0.00697888620197773" rx="0.06660360842943192" cy="0" cx="0" data-idx="593" opacity="0">
  
  
  


</ellipse></g></g><g transform="matrix(1,0,0,1,804.8222045898438,875.0699462890625)" data-idx="597">


<g transform="matrix(0.5972341209355093,0.8020669577974082,-0.8020669577974082,0.5972341209355093,0,0)" data-idx="599">

<ellipse fill="#ffffff" ry="0.8573783040046692" rx="5.87040376663208" cy="0" cx="0" data-idx="600" opacity="0.990932">
  
  
  


</ellipse></g></g><g transform="matrix(1,0,0,1,604.2368774414062,595.923828125)" data-idx="604">


<g transform="matrix(-0.7206433265473071,0.693305990095882,-0.693305990095882,-0.7206433265473071,0,0)" data-idx="606">

<ellipse fill="#ffffff" ry="0.01469822321087122" rx="0.12396157532930374" cy="0" cx="0" data-idx="607" opacity="0">
  
  
  


</ellipse></g></g><g transform="matrix(1,0,0,1,839.887451171875,622.3433837890625)" data-idx="611">


<g transform="matrix(0.9956903842538593,0.09273973638307421,-0.09273973638307421,0.9956903842538593,0,0)" data-idx="613">

<ellipse fill="#ffffee" ry="0.6023144125938416" rx="3.9462339878082275" cy="0" cx="0" data-idx="614" opacity="0.969122">
  
  
  


</ellipse></g></g><g transform="matrix(1,0,0,1,600.206787109375,600.8172607421875)" data-idx="618">


<g transform="matrix(0.24529029439660768,0.9694496745447004,-0.9694496745447004,0.24529029439660768,0,0)" data-idx="620">

<ellipse fill="#ffffdd" ry="0.0021075052209198475" rx="0.02542908489704132" cy="0" cx="0" data-idx="621" opacity="0">
  
  
  


</ellipse></g></g><g transform="matrix(1,0,0,1,600.0262451171875,600.1026611328125)" data-idx="625">


<g transform="matrix(0.24766984374966744,0.9688444913901381,-0.9688444913901381,0.24766984374966744,0,0)" data-idx="627">

<ellipse fill="#ffffdd" ry="0.00026495024212636054" rx="0.005243023857474327" cy="0" cx="0" data-idx="628" opacity="0">
  
  
  


</ellipse></g></g><g transform="matrix(1,0,0,1,601.1809692382812,593.1915893554688)" data-idx="632">


<g transform="matrix(-0.17090363670316328,0.9852877483058607,-0.9852877483058607,-0.17090363670316328,0,0)" data-idx="634">

<ellipse fill="#ffffff" ry="0.017275217920541763" rx="0.1421843320131302" cy="0" cx="0" data-idx="635" opacity="0">
  
  
  


</ellipse></g></g><g transform="matrix(1,0,0,1,598.6141967773438,599.8377075195312)" data-idx="639">


<g transform="matrix(0.9932108998307116,0.1163275911272477,-0.1163275911272477,0.9932108998307116,0,0)" data-idx="641">

<ellipse fill="#ffffff" ry="0.0034882607869803905" rx="0.03793955594301224" cy="0" cx="0" data-idx="642" opacity="0">
  
  
  


</ellipse></g></g><g transform="matrix(1,0,0,1,487.6181945800781,973.8427124023438)" data-idx="646">


<g transform="matrix(-0.2878860252252503,0.9576646785174895,-0.9576646785174895,-0.2878860252252503,0,0)" data-idx="648">

<ellipse fill="#ffffee" ry="0.975922703742981" rx="6.817728042602539" cy="0" cx="0" data-idx="649" opacity="0.994775">
  
  
  


</ellipse></g></g><g transform="matrix(1,0,0,1,317.7887268066406,627.701904296875)" data-idx="653">


<g transform="matrix(-0.9952168326710283,0.09769061351146431,-0.09769061351146431,-0.9952168326710283,0,0)" data-idx="655">

<ellipse fill="#ffffdd" ry="0.7089190483093262" rx="4.726507663726807" cy="0" cx="0" data-idx="656" opacity="0.981699">
  
  
  


</ellipse></g></g><g transform="matrix(1,0,0,1,626.161376953125,668.208251953125)" data-idx="660">


<g transform="matrix(0.3581135903093576,0.933678026107363,-0.933678026107363,0.3581135903093576,0,0)" data-idx="662">

<ellipse fill="#ffffdd" ry="0.18263329565525055" rx="1.1815534830093384" cy="0" cx="0" data-idx="663" opacity="0.605687">
  
  
  


</ellipse></g></g><g transform="matrix(1,0,0,1,522.4966430664062,621.1259765625)" data-idx="667">


<g transform="matrix(-0.96479965147214,0.26298599300958436,-0.26298599300958436,-0.96479965147214,0,0)" data-idx="669">

<ellipse fill="#ffffee" ry="0.20082762837409973" rx="1.2940949201583862" cy="0" cx="0" data-idx="670" opacity="0.657023">
  
  
  


</ellipse></g></g><g transform="matrix(1,0,0,1,599.8199462890625,600.711181640625)" data-idx="674">


<g transform="matrix(-0.24543177445963751,0.9694138662540337,-0.9694138662540337,-0.24543177445963751,0,0)" data-idx="676">

<ellipse fill="#ffffdd" ry="0.0018340798560529947" rx="0.022800741717219353" cy="0" cx="0" data-idx="677" opacity="0">
  
  
  


</ellipse></g></g><g transform="matrix(1,0,0,1,599.98779296875,600.0658569335938)" data-idx="681">


<g transform="matrix(-0.1823800683773614,0.9832281071341833,-0.9832281071341833,-0.1823800683773614,0,0)" data-idx="683">

<ellipse fill="#ffffee" ry="0.00016744635649956763" rx="0.003743069479241967" cy="0" cx="0" data-idx="684" opacity="0">
  
  
  


</ellipse></g></g><g transform="matrix(1,0,0,1,579.4564208984375,448.36151123046875)" data-idx="688">


<g transform="matrix(0.13425083438831645,0.9909473817847448,-0.9909473817847448,0.13425083438831645,0,0)" data-idx="690">

<ellipse fill="#ffffff" ry="0.3825594484806061" rx="2.446469783782959" cy="0" cx="0" data-idx="691" opacity="0.898776">
  
  
  


</ellipse></g></g><g transform="matrix(1,0,0,1,640.1411743164062,667.4193115234375)" data-idx="695">


<g transform="matrix(0.5115838409308809,0.8592333639346224,-0.8592333639346224,0.5115838409308809,0,0)" data-idx="697">

<ellipse fill="#ffeedd" ry="0.1961611658334732" rx="1.2652003765106201" cy="0" cx="0" data-idx="698" opacity="0.644611">
  
  
  


</ellipse></g></g><g transform="matrix(1,0,0,1,606.8812866210938,599.6905517578125)" data-idx="702">


<g transform="matrix(-0.9989903182842537,0.044925983287241594,-0.044925983287241594,-0.9989903182842537,0,0)" data-idx="704">

<ellipse fill="#ffffdd" ry="0.01722058095037937" rx="0.14180123805999756" cy="0" cx="0" data-idx="705" opacity="0">
  
  
  


</ellipse></g></g><g transform="matrix(1,0,0,1,599.999755859375,600.002197265625)" data-idx="709">


<g transform="matrix(-0.09933771668186143,0.9950537764585562,-0.9950537764585562,-0.09933771668186143,0,0)" data-idx="711">

<ellipse fill="#ffffff" ry="0.00000555814040126279" rx="0.0003368110628798604" cy="0" cx="0" data-idx="712" opacity="0">
  
  
  


</ellipse></g></g><g transform="matrix(1,0,0,1,598.56640625,600.3812255859375)" data-idx="716">


<g transform="matrix(-0.966414101767228,0.25698985175574907,-0.25698985175574907,-0.966414101767228,0,0)" data-idx="718">

<ellipse fill="#ffeedd" ry="0.0037085125222802162" rx="0.03984922170639038" cy="0" cx="0" data-idx="719" opacity="0">
  
  
  


</ellipse></g></g><g transform="matrix(1,0,0,1,790.4801025390625,563.0680541992188)" data-idx="723">


<g transform="matrix(-0.9817174740651725,0.19034390222725128,-0.19034390222725128,-0.9817174740651725,0,0)" data-idx="725">

<ellipse fill="#ffeedd" ry="0.48506855964660645" rx="3.128995418548584" cy="0" cx="0" data-idx="726" opacity="0.943256">
  
  
  


</ellipse></g></g><g transform="matrix(1,0,0,1,599.9993896484375,600.0003051757812)" data-idx="730">


<g transform="matrix(-0.8971528982327849,0.44172013446583397,-0.44172013446583397,-0.8971528982327849,0,0)" data-idx="732">

<ellipse fill="#ffeedd" ry="0.0000016872647847776534" rx="0.0001486592082073912" cy="0" cx="0" data-idx="733" opacity="0">
  
  
  


</ellipse></g></g><g transform="matrix(1,0,0,1,555.0545043945312,607.6268920898438)" data-idx="737">


<g transform="matrix(-0.9859060282444141,0.16730004026097683,-0.16730004026097683,-0.9859060282444141,0,0)" data-idx="739">

<ellipse fill="#ffffee" ry="0.11396998912096024" rx="0.7582529187202454" cy="0" cx="0" data-idx="740" opacity="0.335424">
  
  
  


</ellipse></g></g><g transform="matrix(1,0,0,1,573.5347900390625,637.2457885742188)" data-idx="744">


<g transform="matrix(-0.5792236659687118,0.815168660328503,-0.815168660328503,-0.5792236659687118,0,0)" data-idx="746">

<ellipse fill="#ffffee" ry="0.11422716826200485" rx="0.7598401308059692" cy="0" cx="0" data-idx="747" opacity="0.336634">
  
  
  


</ellipse></g></g><g transform="matrix(1,0,0,1,599.841064453125,600.0216064453125)" data-idx="751">


<g transform="matrix(-0.9908933502488381,0.13464905656050333,-0.13464905656050333,-0.9908933502488381,0,0)" data-idx="753">

<ellipse fill="#ffffee" ry="0.0004010444972664118" rx="0.007133449427783489" cy="0" cx="0" data-idx="754" opacity="0">
  
  
  


</ellipse></g></g><g transform="matrix(1,0,0,1,561.6212768554688,623.0204467773438)" data-idx="758">


<g transform="matrix(-0.8575598859819012,0.5143841385139208,-0.5143841385139208,-0.8575598859819012,0,0)" data-idx="760">

<ellipse fill="#ffeedd" ry="0.1118834912776947" rx="0.7453739047050476" cy="0" cx="0" data-idx="761" opacity="0.325576">
  
  
  


</ellipse></g></g><g transform="matrix(1,0,0,1,757.6007690429688,647.2714233398438)" data-idx="765">


<g transform="matrix(0.9578410376765825,0.287298706127695,-0.287298706127695,0.9578410376765825,0,0)" data-idx="767">

<ellipse fill="#ffffee" ry="0.4113437533378601" rx="2.6353626251220703" cy="0" cx="0" data-idx="768" opacity="0.914456">
  
  
  


</ellipse></g></g><g transform="matrix(1,0,0,1,607.2454833984375,603.3173217773438)" data-idx="772">


<g transform="matrix(0.9092318796041263,0.41629003004101295,-0.41629003004101295,0.9092318796041263,0,0)" data-idx="774">

<ellipse fill="#ffeedd" ry="0.019922012463212013" rx="0.16059623658657074" cy="0" cx="0" data-idx="775" opacity="0">
  
  
  


</ellipse></g></g><g transform="matrix(1,0,0,1,583.8535766601562,624.5006103515625)" data-idx="779">


<g transform="matrix(-0.5502727523119154,0.8349849687647493,-0.8349849687647493,-0.5502727523119154,0,0)" data-idx="781">

<ellipse fill="#ffeedd" ry="0.07335648685693741" rx="0.5062384605407715" cy="0" cx="0" data-idx="782" opacity="0.142309">
  
  
  


</ellipse></g></g><g transform="matrix(1,0,0,1,572.5370483398438,618.864990234375)" data-idx="786">


<g transform="matrix(-0.824263431644896,0.566206495240897,-0.566206495240897,-0.824263431644896,0,0)" data-idx="788">

<ellipse fill="#ffffee" ry="0.08329550176858902" rx="0.5682653784751892" cy="0" cx="0" data-idx="789" opacity="0.188429">
  
  
  


</ellipse></g></g><g transform="matrix(1,0,0,1,600.5835571289062,601.6971435546875)" data-idx="793">


<g transform="matrix(0.3251579305099409,0.9456597275058786,-0.9456597275058786,0.3251579305099409,0,0)" data-idx="795">

<ellipse fill="#ffffff" ry="0.00448667723685503" rx="0.04645971208810806" cy="0" cx="0" data-idx="796" opacity="0">
  
  
  


</ellipse></g></g><g transform="matrix(1,0,0,1,600.087646484375,598.9213256835938)" data-idx="800">


<g transform="matrix(-0.08097268440485078,0.9967163209159727,-0.9967163209159727,-0.08097268440485078,0,0)" data-idx="802">

<ellipse fill="#ffeedd" ry="0.0027055060490965843" rx="0.030979683622717857" cy="0" cx="0" data-idx="803" opacity="0">
  
  
  


</ellipse></g></g><g transform="matrix(1,0,0,1,607.9132080078125,597.00146484375)" data-idx="807">


<g transform="matrix(-0.9351169038762639,0.35433935158950425,-0.35433935158950425,-0.9351169038762639,0,0)" data-idx="809">

<ellipse fill="#ffffdd" ry="0.021155741065740585" rx="0.1690899133682251" cy="0" cx="0" data-idx="810" opacity="0">
  
  
  


</ellipse></g></g><g transform="matrix(1,0,0,1,802.567138671875,495.7272644042969)" data-idx="814">


<g transform="matrix(-0.8891175979796098,0.4576788141950302,-0.4576788141950302,-0.8891175979796098,0,0)" data-idx="816">

<ellipse fill="#ffeedd" ry="0.5695736408233643" rx="3.713813304901123" cy="0" cx="0" data-idx="817" opacity="0.963559">
  
  
  


</ellipse></g></g><g transform="matrix(1,0,0,1,600.973388671875,564.41259765625)" data-idx="821">


<g transform="matrix(-0.027341264666404852,0.9996261577442047,-0.9996261577442047,-0.027341264666404852,0,0)" data-idx="823">

<ellipse fill="#ffffdd" ry="0.0890018567442894" rx="0.6037458777427673" cy="0" cx="0" data-idx="824" opacity="0.215643">
  
  
  


</ellipse></g></g><g transform="matrix(1,0,0,1,632.1160278320312,-63.63946533203125)" data-idx="828">


<g transform="matrix(-0.048337238124093074,0.9988310725095284,-0.9988310725095284,-0.048337238124093074,0,0)" data-idx="830">

<ellipse fill="#ffffee" ry="1.6610403060913086" rx="11.152013778686523" cy="0" cx="0" data-idx="831" opacity="0.999824">
  
  
  


</ellipse></g></g><g transform="matrix(1,0,0,1,599.9991455078125,599.9999389648438)" data-idx="835">


<g transform="matrix(0.9982760865047814,0.058692888093006865,-0.058692888093006865,0.9982760865047814,0,0)" data-idx="837">

<ellipse fill="#ffffff" ry="0.0000021199134607741144" rx="0.00017374877643305808" cy="0" cx="0" data-idx="838" opacity="0">
  
  
  


</ellipse></g></g><g transform="matrix(1,0,0,1,600,600)" data-idx="842">


<g transform="matrix(-0.9764879707684522,0.21557189739043076,-0.21557189739043076,-0.9764879707684522,0,0)" data-idx="844">

<ellipse fill="#ffeedd" ry="1.6173034467215075e-8" rx="0.000006455556558648823" cy="0" cx="0" data-idx="845" opacity="0">
  
  
  


</ellipse></g></g><g transform="matrix(1,0,0,1,538.7172241210938,363.9331359863281)" data-idx="849">


<g transform="matrix(0.2512703253767925,0.9679169507685258,-0.9679169507685258,0.2512703253767925,0,0)" data-idx="851">

<ellipse fill="#ffffff" ry="0.6097291707992554" rx="3.9993364810943604" cy="0" cx="0" data-idx="852" opacity="0.970248">
  
  
  


</ellipse></g></g><g transform="matrix(1,0,0,1,968.9799194335938,19.27001953125)" data-idx="856">


<g transform="matrix(-0.5362799418031503,0.844040179150027,-0.844040179150027,-0.5362799418031503,0,0)" data-idx="858">

<ellipse fill="#ffffee" ry="1.7200899124145508" rx="11.355000495910645" cy="0" cx="0" data-idx="859" opacity="0.999874">
  
  
  


</ellipse></g></g><g transform="matrix(1,0,0,1,598.9271240234375,598.8754272460938)" data-idx="863">


<g transform="matrix(0.6902740457339871,0.7235480231373959,-0.7235480231373959,0.6902740457339871,0,0)" data-idx="865">

<ellipse fill="#ffffff" ry="0.0038856561295688152" rx="0.04137188568711281" cy="0" cx="0" data-idx="866" opacity="0">
  
  
  


</ellipse></g></g><g transform="matrix(1,0,0,1,612.9112548828125,698.3670654296875)" data-idx="870">


<g transform="matrix(0.1301394990353487,0.9914956937833005,-0.9914956937833005,0.1301394990353487,0,0)" data-idx="872">

<ellipse fill="#ffeedd" ry="0.24802696704864502" rx="1.5878396034240723" cy="0" cx="0" data-idx="873" opacity="0.757819">
  
  
  


</ellipse></g></g><g transform="matrix(1,0,0,1,587.1697387695312,591.7294311523438)" data-idx="877">


<g transform="matrix(0.8405063746170526,0.5418016558004404,-0.5418016558004404,0.8405063746170526,0,0)" data-idx="879">

<ellipse fill="#ffffee" ry="0.038162264972925186" rx="0.2823944389820099" cy="0" cx="0" data-idx="880" opacity="0.0143502">
  
  
  


</ellipse></g></g><g transform="matrix(1,0,0,1,505.4889221191406,400.9163818359375)" data-idx="884">


<g transform="matrix(0.4288581726269806,0.9033718325092093,-0.9033718325092093,0.4288581726269806,0,0)" data-idx="886">

<ellipse fill="#ffffee" ry="0.5509459972381592" rx="3.583061695098877" cy="0" cx="0" data-idx="887" opacity="0.959904">
  
  
  


</ellipse></g></g><g transform="matrix(1,0,0,1,588.322265625,595.8801879882812)" data-idx="891">


<g transform="matrix(0.9430344987022569,0.3326949567657784,-0.3326949567657784,0.9430344987022569,0,0)" data-idx="893">

<ellipse fill="#ffffff" ry="0.030957922339439392" rx="0.23508819937705994" cy="0" cx="0" data-idx="894" opacity="0.00250519">
  
  
  


</ellipse></g></g><g transform="matrix(1,0,0,1,608.61328125,605.527587890625)" data-idx="898">


<g transform="matrix(0.8416014039698776,0.5400991361184824,-0.5400991361184824,0.8416014039698776,0,0)" data-idx="900">

<ellipse fill="#ffffff" ry="0.02558598294854164" rx="0.19920817017555237" cy="0" cx="0" data-idx="901" opacity="0">
  
  
  


</ellipse></g></g><g data-idx="905"></g></g><text data-watermark="true" text-anchor="middle" dominant-baseline="middle" stroke-opacity="0.1" fill="black" fill-opacity="0.1" stroke="white" stroke-width="1" font-size="15.0" x="600.0" y="600.0" data-idx="906" style="opacity: 1; font-size: 15px;">COMING SOON</text></svg>